<?xml version="1.0" encoding="UTF-8" standalone="no"?>
<svg version="1.1" x="0px" y="0px" viewBox="0 0 270 270" xml:space="preserve" id="svg217" width="270" height="270"
  xmlns="http://www.w3.org/2000/svg">
  <defs id="defs221" />
  <g id="g209" transform="translate(-114.5,-130)">
    <path d="M 280,130 H 180 c -5.523,0 -10,4.477 -10,10 v 250 c 0,5.522 4.477,10 10,10 h 40 c 5.523,0 10,-4.478 10,-10 v -90 h 50 c 46.869,0 85,-38.131 85,-85 0,-46.869 -38.131,-85 -85,-85 z m 0,150 h -60 c -5.523,0 -10,4.478 -10,10 v 90 H 190 V 150 h 90 c 35.841,0 65,29.159 65,65 0,35.841 -29.159,65 -65,65 z" id="path203" />
    <path d="m 280,170 h -60 c -5.523,0 -10,4.477 -10,10 v 70 c 0,5.523 4.477,10 10,10 h 60 c 24.813,0 45,-20.187 45,-45 0,-24.813 -20.187,-45 -45,-45 z m 0,70 h -50 v -50 h 50 c 13.785,0 25,11.215 25,25 0,13.785 -11.215,25 -25,25 z" id="path205" />
  </g>
</svg>
