<?xml version="1.0" encoding="utf-8"?>
<!-- Generator: Adobe Illustrator 23.0.2, SVG Export Plug-In . SVG Version: 6.00 Build 0)  -->
<svg version="1.1" id="Layer_1" xmlns="http://www.w3.org/2000/svg" xmlns:xlink="http://www.w3.org/1999/xlink" x="0px" y="0px"
	 viewBox="0 0 100 100" style="enable-background:new 0 0 100 100;" xml:space="preserve">
<g>
	<path d="M63.7,10.7H35.5c-12.6,0-23.1,10.3-23.1,23.1v37.9l-4.1-4.1c-0.8-0.8-1.7-1.1-2.6-1.1s-1.9,0.3-2.6,1.1
		C2.3,68.4,2,69.3,2,70.3c0,0.9,0.5,1.9,1.1,2.6l8.9,8.9c1.1,1.1,2.6,1.7,4.2,1.7s3.1-0.6,4.2-1.7l8.9-8.9c0.8-0.8,1.1-1.7,1.1-2.6
		c0-0.9-0.5-1.9-1.1-2.6c-0.8-0.8-1.7-1.1-2.6-1.1c-0.9,0-1.9,0.5-2.6,1.1l-4.1,4.1V33.8c0-8.6,7-15.6,15.6-15.6h28.4
		c2,0,3.7-1.7,3.7-3.7S65.9,10.7,63.7,10.7z"/>
	<path d="M87.6,28.3l4.1,4.1c1.4,1.4,3.9,1.4,5.3,0c0.8-0.8,1.1-1.7,1.1-2.6c0-0.9-0.5-1.9-1.1-2.6L88,18.2
		c-1.1-1.1-2.6-1.7-4.2-1.7s-3.1,0.6-4.2,1.7l-8.9,8.9c-0.8,0.8-1.1,1.7-1.1,2.6c0,0.9,0.5,1.9,1.1,2.6c0.8,0.8,1.7,1.1,2.6,1.1
		s1.9-0.5,2.6-1.1l4.1-4.1v37.9c0,8.6-7,15.6-15.6,15.6H36.3c-2,0-3.7,1.7-3.7,3.7c0,2,1.7,3.7,3.7,3.7h28.4
		c12.6,0,23.1-10.3,23.1-23.1V28.3H87.6z"/>
	<path d="M56.4,71.7c5-1.6,7.8-4.7,8.4-9.2c0.8-5.5-0.9-9.5-5-12c-1.4-0.9-3.1-1.6-4.7-2.3c-0.8-0.3-1.6-0.8-2.3-1.1
		c-0.5-0.3-0.9-0.5-1.6-0.8c-1.4-0.6-2.6-1.2-4.1-2c-1.9-1.2-2.6-3.9-1.7-6.5c0.8-2.2,2.2-3.1,5-3.1c2.6,0,4.5,1.2,5.3,3.6
		c0.3,0.6,0.3,1.4,0.5,2.2v0.2c0,0.3,0.2,0.6,0.2,0.8h8.3c0.3-2.3-0.3-5.1-1.6-7.2c-1.9-3.1-4.7-5-9.2-5.9L53.3,28v-3.9h-4.7v3.6
		L48,27.9c-0.5,0.2-0.9,0.3-1.4,0.5c-1.4,0.5-2.6,0.8-3.7,1.4c-3.6,1.9-5.9,5.3-6.2,9.5c-0.3,4.1,1.4,7.8,4.5,10.1
		c1.7,1.2,3.6,2,5.5,2.8c0.8,0.3,1.7,0.8,2.5,1.1c0.5,0.3,0.9,0.5,1.4,0.6l0.3,0.2c1.2,0.5,2.3,1.1,3.3,1.7c2,1.2,2.8,3.9,1.9,6.5
		c-0.6,2.2-2.3,3.3-5,3.4c-0.6,0-1.2,0-1.9,0c-3.1-0.2-5.1-2.2-5.6-5.5c0-0.2,0-0.3,0-0.6l-0.2-0.9H35c-0.6,7,3.3,11.4,12.2,13.4
		l0.6,0.2v3.3h4.7v-3.3l1.2-0.3C54.8,72.1,55.6,72,56.4,71.7z"/>
</g>
</svg>
