<?xml version="1.0" encoding="utf-8"?>
<!-- Generator: Adobe Illustrator 23.0.2, SVG Export Plug-In . SVG Version: 6.00 Build 0)  -->
<svg version="1.1" id="Layer_1" xmlns="http://www.w3.org/2000/svg" xmlns:xlink="http://www.w3.org/1999/xlink" x="0px" y="0px"
	 viewBox="0 0 100 100" style="enable-background:new 0 0 100 100;" xml:space="preserve">
<title>piggy-bank</title>
<path d="M51.8,8.7c7,0,12.8,4.9,14.2,11.4c0.2,1,0.3,2.1,0.3,3.2c0,2.7-0.7,5.1-2,7.3H39.2c-0.8-1.4-1.4-3-1.7-4.7
	c-0.1-0.8-0.2-1.7-0.2-2.5C37.2,15.2,43.8,8.7,51.8,8.7z M78.6,16v17.4c2.7,2.5,5,5.5,6.6,8.7L98,47.6v14.6l-12.8,5.5
	c-2.5,5-6.5,9.3-11.5,12.5v11.2H61.5v-6c-3.1,0.7-6.4,1.1-9.7,1.1s-6.6-0.4-9.7-1.1v6H29.9V80.1c-7.8-5.1-13.2-12.8-14.3-21.6
	c-0.1,0-0.2,0-0.2,0c-3.4,0-6.8-1.3-9.5-3.9c-5.2-5.2-5.2-13.7,0-18.9l5.2,5.2c-2.4,2.4-2.4,6.2,0,8.6c1.2,1.2,2.9,1.8,4.5,1.8
	C17,41,23.9,32.3,33.8,27.4c0.5,2.6,1.6,5,3.4,7h29.5c1.8-2.4,3-5.2,3.5-8.2c0.6-2.8,0.4-5.6-0.5-8.2C74.2,16,78.6,16,78.6,16
	L78.6,16z M72.5,42.7c-0.1,0-0.3,0-0.4,0h0l0,0c-0.1,0-0.2,0-0.4,0.1c-0.1,0-0.2,0.1-0.4,0.1c-0.4,0.1-0.7,0.3-1,0.5
	c0,0-0.1,0-0.1,0.1l0,0c-0.1,0.1-0.1,0.1-0.2,0.2c0,0-0.1,0.1-0.1,0.1l0,0c-0.1,0-0.1,0.1-0.2,0.1c0,0-0.1,0.1-0.1,0.1l0,0
	c0,0.1-0.1,0.1-0.1,0.2c0,0-0.1,0.1-0.1,0.1l0,0c0,0.1-0.1,0.1-0.1,0.2c0,0,0,0.1-0.1,0.1l0,0c0,0.1-0.1,0.1-0.1,0.2
	c0,0,0,0.1,0,0.1l0,0c0,0.1-0.1,0.1-0.1,0.2c0,0,0,0.1,0,0.1l0,0c0,0.1-0.1,0.1-0.1,0.2c0,0,0,0.1,0,0.1l0,0c0,0.1,0,0.1,0,0.2
	c0,0,0,0.1,0,0.1l0,0c0,0.1,0,0.1,0,0.2c0,0.1,0,0.2,0,0.3v0c0,0.1,0,0.3,0,0.4v0c0,0.1,0,0.2,0.1,0.4c0.1,0.4,0.2,0.7,0.4,1
	c0.1,0.1,0.1,0.2,0.2,0.3c0,0.1,0.1,0.1,0.1,0.1l0,0c0,0.1,0.1,0.1,0.1,0.2c0,0,0.1,0.1,0.1,0.1v0c0,0,0.1,0.1,0.1,0.1
	C70,49,70,49,70,49l0,0c0.1,0,0.1,0.1,0.2,0.1c0,0,0.1,0.1,0.1,0.1l0,0c0.1,0,0.1,0.1,0.2,0.1c0,0,0.1,0,0.1,0.1l0,0
	c0.1,0,0.1,0.1,0.2,0.1c0,0,0.1,0,0.1,0.1l0,0c0.1,0,0.1,0.1,0.2,0.1c0,0,0,0,0.1,0l0,0c0.1,0,0.2,0.1,0.2,0.1c0,0,0.1,0,0.1,0l0,0
	c0.1,0,0.1,0,0.2,0c0,0,0.1,0,0.1,0l0,0c0.1,0,0.1,0,0.2,0c0.1,0,0.2,0,0.3,0l0,0c0,0,0,0,0,0c0.1,0,0.3,0,0.4,0h0l0,0
	c0.1,0,0.2,0,0.4-0.1c0.4-0.1,0.7-0.2,1-0.4c0.1-0.1,0.2-0.1,0.3-0.2c0,0,0.1,0,0.1-0.1l0,0c0.1-0.1,0.1-0.1,0.2-0.2
	c0,0,0.1-0.1,0.1-0.1l0,0C75,49,75,49,75.1,48.9c0,0,0.1-0.1,0.1-0.1l0,0c0-0.1,0.1-0.1,0.1-0.2c0,0,0.1-0.1,0.1-0.1l0,0
	c0-0.1,0.1-0.1,0.1-0.2c0,0,0-0.1,0.1-0.1l0,0c0-0.1,0.1-0.1,0.1-0.2c0,0,0-0.1,0-0.1l0,0c0-0.1,0.1-0.1,0.1-0.2c0,0,0-0.1,0-0.1
	l0,0c0-0.1,0.1-0.1,0.1-0.2c0,0,0-0.1,0-0.1l0,0c0-0.1,0-0.1,0-0.2c0,0,0-0.1,0-0.1l0,0c0-0.1,0-0.1,0-0.2c0-0.1,0-0.2,0-0.3v0
	c0-0.1,0-0.3,0-0.4v0c0-0.1,0-0.2-0.1-0.4c-0.1-0.4-0.2-0.7-0.4-1c0,0,0,0,0,0l0,0c-0.1-0.1-0.1-0.2-0.2-0.3c0,0-0.1-0.1-0.1-0.1
	l0,0c0-0.1-0.1-0.1-0.1-0.2c0,0-0.1-0.1-0.1-0.1v0c0-0.1-0.1-0.1-0.1-0.2c0,0-0.1-0.1-0.1-0.1l0,0c0,0-0.1-0.1-0.1-0.1
	c0,0-0.1-0.1-0.1-0.1l0,0c-0.1,0-0.1-0.1-0.2-0.1c0,0-0.1,0-0.1-0.1l0,0c-0.1,0-0.1-0.1-0.2-0.1c0,0-0.1,0-0.1,0l0,0
	C74,43,73.9,43,73.8,43c0,0-0.1,0-0.1,0l0,0c-0.1,0-0.1,0-0.2-0.1c0,0-0.1,0-0.1,0l0,0c-0.1,0-0.1,0-0.2,0c0,0-0.1,0-0.1,0l0,0
	c-0.1,0-0.1,0-0.2,0C72.7,42.7,72.6,42.7,72.5,42.7L72.5,42.7L72.5,42.7z"/>
</svg>
