<?xml version="1.0" encoding="UTF-8" standalone="no"?>
<svg data-name="Layer 1" viewBox="0 0 45.019001 29.762903" x="0px" y="0px" version="1.1" id="svg15" width="45.019001" height="29.762903" fill="#DDB700"
  xmlns="http://www.w3.org/2000/svg"
  xmlnsSvg="http://www.w3.org/2000/svg">
  <defs id="defs19" />
  <path d="m 34.524565,12.052904 -10.58,-11.43000002 a 1.93,1.93 0 0 0 -2.84,0 l -10.58,11.43000002 a 1.94,1.94 0 0 1 -2.2099998,0.45 l -5.6,-2.49 a 1.93,1.93 0 0 0 -2.70000004,2 l 2.30000004,16.09 a 1.93,1.93 0 0 0 1.91,1.66 H 40.794565 a 1.93,1.93 0 0 0 1.91,-1.66 l 2.3,-16.09 a 1.93,1.93 0 0 0 -2.7,-2 l -5.6,2.49 a 1.94,1.94 0 0 1 -2.18,-0.45 z" id="path9" />
</svg>
