<?xml version="1.0" encoding="UTF-8" standalone="no"?>
<svg version="1.1" x="0px" y="0px" viewBox="0 0 64.788002 64.788002" enable-background="new 0 0 100 100" xml:space="preserve" id="svg193" width="64.788002" height="64.788002"
  xmlns="http://www.w3.org/2000/svg">
  <defs id="defs197" />
  <path fill-rule="evenodd" clip-rule="evenodd" d="m 64.709921,21.615844 v 0.578 c 0,1.651 -1.338,2.989 -2.989,2.989 h -4.211 v 0.611 c 0,1.429 -1.005,2.621 -2.345,2.916 v 19.369 c 1.341,0.295 2.345,1.486 2.345,2.916 v 0.611 h 4.211 c 1.651,0 2.989,1.338 2.989,2.989 v 1.2 c 0,1.651 -1.338,2.989 -2.989,2.989 h -58.691 c -1.651,0 -2.98900004,-1.338 -2.98900004,-2.989 v -1.2 c 0,-1.651 1.33800004,-2.989 2.98900004,-2.989 h 4.211 v -0.611 c 0,-1.429 1.005,-2.621 2.346,-2.916 v -19.369 c -1.341,-0.295 -2.346,-1.486 -2.346,-2.916 v -0.611 h -4.211 c -1.651,0 -2.98900004,-1.338 -2.98900004,-2.989 v -0.762 c -0.199,-1.194 0.335,-2.438 1.44500004,-3.079 l 28.93,-17.96300097 c 0.624,-0.36 1.322,-0.456 1.981,-0.347 0.659,-0.11 1.357,-0.013 1.981,0.347 l 28.93,17.96300097 c 1.166,0.674 1.692,2.015 1.402,3.263 z m -28.746,26.462 c 1.341,0.295 2.345,1.486 2.345,2.916 v 0.611 h 7.331 v -0.611 c 0,-1.429 1.005,-2.621 2.346,-2.916 v -19.368 c -1.341,-0.295 -2.346,-1.486 -2.346,-2.916 v -0.611 h -7.331 v 0.611 c 0,1.429 -1.005,2.621 -2.345,2.916 z m -19.2,0 c 1.341,0.295 2.345,1.486 2.345,2.916 v 0.611 h 7.331 v -0.611 c 0,-1.429 1.005,-2.621 2.346,-2.916 v -19.368 c -1.341,-0.295 -2.346,-1.486 -2.346,-2.916 v -0.611 h -7.331 v 0.611 c 0,1.429 -1.005,2.621 -2.345,2.916 z m 32.38,-30.073 -16.748,-10.3990005 -16.748,10.3990005 z" id="path187" />
</svg>
