<?xml version="1.0" encoding="utf-8"?>
<!-- Generator: Adobe Illustrator 23.0.2, SVG Export Plug-In . SVG Version: 6.00 Build 0)  -->
<svg version="1.1" id="Layer_1" xmlns="http://www.w3.org/2000/svg" xmlns:xlink="http://www.w3.org/1999/xlink" x="0px" y="0px"
	 viewBox="0 0 100 100" style="enable-background:new 0 0 100 100;" xml:space="preserve">
<g>
	<path d="M79.4,1.9H20.6C10.4,1.9,2,10.3,2,20.5v58.7c0,10.2,8.4,18.6,18.6,18.6h58.7c10.2,0,18.6-8.4,18.6-18.6V20.7
		C98.1,10.3,89.7,1.9,79.4,1.9z M74.2,47.3c-0.9,2.5-2.3,4.7-4.1,6.5c-1.8,1.9-4,3.4-6.7,4.5c-2.6,1.2-5.7,1.7-8.9,1.7H42.2v20.4
		H28.9V19.6h25.6c3.4,0,6.5,0.6,9.1,1.8c2.6,1.2,4.9,2.7,6.6,4.7c1.8,1.9,3.1,4.1,4,6.5c0.9,2.3,1.4,4.8,1.4,7.2
		C75.6,42.4,75.1,44.9,74.2,47.3z"/>
	<path d="M54.4,32.6H42.2v14.7h12.2c1,0,2.1-0.3,3-0.6c0.9-0.4,1.8-0.9,2.5-1.7c0.6-0.6,1.3-1.6,1.7-2.5c0.4-0.9,0.6-1.9,0.6-3
		c0-2.1-0.6-3.8-2.2-5.2C58.7,33.2,56.7,32.6,54.4,32.6z"/>
</g>
</svg>
